# xmcd
#
# Track frame offsets:
#	152
#	9365
#	26443
#	43159
#	69620
#	84893
#	98613
#	120433
#	141458
#	168019
#	185935
#	200620
#	217921
#	234413
#	264400
#	282466
#
# Disc length: 3960
#
# Revision: 1
# Processed by: cddbd v1.5.1PL0 Copyright (c) Steve Scherf et al.
# Submitted via: Feurio! 1.65 - http://www.feurio.com
# Normalized: r0:DSETVAR1
#
DISCID=da0f7610
DTITLE=Various Artist - Dusties... Rhythm and Romance
DYEAR=1900
DGENRE=blues
TTITLE0=Delfonics - Ready Or Not Here I Come
TTITLE1=Major Harris - Love Won't Let Me Wait
TTITLE2=Isley Brothers - Love The One You're With
TTITLE3=Barbara Mason - Winter Love
TTITLE4=Johnny Bristol - Hang On In There Baby
TTITLE5=Smokey Robinson and Miracles - Doggone Right
TTITLE6=Blue Magic - Three Ring Circus
TTITLE7=Chaka Khan and Rufus - Tell Me Something Good
TTITLE8=Tyrone Davis - This I Swear
TTITLE9=Marvin Gaye - I Want You
TTITLE10=The Stylistics - Can't Give You Anything But Love
TTITLE11=Minnie Riperton - Lover and Friend
TTITLE12=O'Jays - Let Me Make Love To You
TTITLE13=Stephanie Mills - I've Learned To Respect The Power Of Love
TTITLE14=Dells - Give Your Baby A Standing Ovation
TTITLE15=Eddie Kendricks - Get It While It's Hot
EXTD=
EXTT0=
EXTT1=
EXTT2=
EXTT3=
EXTT4=
EXTT5=
EXTT6=
EXTT7=
EXTT8=
EXTT9=
EXTT10=
EXTT11=
EXTT12=
EXTT13=
EXTT14=
EXTT15=
PLAYORDER=
